M48
; DRILL file KiCad 10.0.4+dfsg-1 date 2026-07-21T12:04:46
; FORMAT={-:-/ absolute / metric / decimal}
; #@! TF.CreationDate,2026-07-21T12:04:46+02:00
; #@! TF.GenerationSoftware,Kicad,Pcbnew,10.0.4+dfsg-1
; #@! TF.FileFunction,MixedPlating,1,2
FMAT,2
METRIC
; #@! TA.AperFunction,Plated,PTH,ComponentDrill
T1C1.000
; #@! TA.AperFunction,Plated,PTH,ComponentDrill
T2C1.100
; #@! TA.AperFunction,Plated,PTH,ComponentDrill
T3C1.200
; #@! TA.AperFunction,Plated,PTH,ComponentDrill
T4C1.300
; #@! TA.AperFunction,NonPlated,NPTH,ComponentDrill
T5C3.200
%
G90
G05
T1
X4.0Y-77.6
X6.46Y-37.24
X6.46Y-39.78
X6.46Y-42.32
X6.46Y-44.86
X6.46Y-47.4
X6.46Y-49.94
X6.46Y-52.48
X6.46Y-55.02
X6.46Y-57.56
X6.46Y-60.1
X6.46Y-62.64
X6.46Y-65.18
X6.46Y-67.72
X6.46Y-70.26
X6.54Y-77.6
X9.0Y-22.0
X9.0Y-24.54
X9.0Y-27.08
X9.0Y-29.62
X9.0Y-32.16
X9.0Y-34.7
X9.0Y-37.24
X9.0Y-39.78
X9.0Y-42.32
X9.0Y-44.86
X9.0Y-47.4
X9.0Y-49.94
X9.0Y-52.48
X9.0Y-55.02
X9.0Y-57.56
X9.0Y-60.1
X9.0Y-62.64
X9.0Y-65.18
X9.0Y-67.72
X9.0Y-84.0
X11.54Y-84.0
X34.4Y-22.0
X34.4Y-24.54
X34.4Y-27.08
X34.4Y-29.62
X34.4Y-32.16
X34.4Y-34.7
X34.4Y-37.24
X34.4Y-39.78
X34.4Y-42.32
X34.4Y-44.86
X34.4Y-47.4
X34.4Y-49.94
X34.4Y-52.48
X34.4Y-55.02
X34.4Y-57.56
X34.4Y-60.1
X34.4Y-62.64
X34.4Y-65.18
X34.4Y-67.72
X36.94Y-39.78
X36.94Y-42.32
X36.94Y-44.86
X36.94Y-47.4
X36.94Y-49.94
X36.94Y-52.48
X36.94Y-55.02
X36.94Y-57.56
X36.94Y-60.1
X36.94Y-62.64
X36.94Y-65.18
X36.94Y-67.72
X36.94Y-70.26
X36.94Y-72.8
X36.94Y-75.34
X36.94Y-77.88
X36.94Y-80.42
X36.94Y-82.96
X36.94Y-85.5
X36.94Y-88.04
X39.48Y-39.78
X39.48Y-42.32
X39.48Y-44.86
X39.48Y-47.4
X39.48Y-49.94
X39.48Y-52.48
X39.48Y-55.02
X39.48Y-57.56
X39.48Y-60.1
X39.48Y-62.64
X39.48Y-65.18
X39.48Y-67.72
X39.48Y-70.26
X39.48Y-72.8
X39.48Y-75.34
X39.48Y-77.88
X39.48Y-80.42
X39.48Y-82.96
X39.48Y-85.5
X39.48Y-88.04
T2
X4.0Y-74.0
X6.54Y-74.0
T3
X9.0Y-88.0
X12.0Y-88.0
T4
X3.5Y-12.0
X6.5Y-12.0
X10.5Y-12.0
X13.5Y-12.0
X17.5Y-12.0
X20.5Y-12.0
X24.5Y-12.0
X27.5Y-12.0
X31.5Y-12.0
X34.5Y-12.0
T5
X4.0Y-4.0
X4.0Y-96.0
X40.0Y-4.0
X40.0Y-96.0
M30
